# AST/ASF file generated using VICON BodyLanguage
# -----------------------------------------------
:version 1.10
:name VICON
:units
  mass 1.0
  length 0.45
  angle deg
:documentation
   .ast/.asf automatically generated from VICON data using
   VICON BodyBuilder and BodyLanguage model FoxedUp or BRILLIANT.MOD
:root
   order TX TY TZ RX RY RZ
   axis XYZ
   position 0 0 0  
   orientation 0 0 0 
:bonedata
  begin
     id 1 
     name lhipjoint
     direction 0.521452 -0.77106 0.36545 
     length 2.0933 
     axis 0 0 0  XYZ
  end
  begin
     id 2 
     name lfemur
     direction 0.34202 -0.939693 0  
     length 6.83441  
     axis 0 0 20  XYZ
    dof rx ry rz
    limits (-160.0 20.0)
           (-70.0 70.0)
           (-60.0 70.0)
  end
  begin
     id 3 
     name ltibia
     direction 0.34202 -0.939693 0   
     length 7.28749   
     axis 0 0 20   XYZ
    dof rx
    limits (-10.0 170.0)
  end
  begin
     id 4 
     name lfoot
     direction 0.100608 -0.276418 0.955757   
     length 1.52195   
     axis -90 7.62852e-016 20   XYZ
    dof rx rz
    limits (-45.0 90.0)
           (-70.0 20.0)
  end
  begin
     id 5 
     name ltoes
     direction 1.53558e-011 -4.21907e-011 1   
     length 0.770459   
     axis -90 7.62852e-016 20   XYZ
    dof rx
    limits (-90.0 20.0)
  end
  begin
     id 6 
     name rhipjoint
     direction -0.488071 -0.788702 0.373812   
     length 2.04648  
     axis 0 0 0  XYZ 
  end
  begin
     id 7 
     name rfemur
     direction -0.34202 -0.939693 0   
     length 6.92583   
     axis 0 0 -20   XYZ
    dof rx ry rz
    limits (-160.0 20.0)
           (-70.0 70.0)
           (-70.0 60.0)
  end
  begin
     id 8 
     name rtibia
     direction -0.34202 -0.939693 0   
     length 7.41043   
     axis 0 0 -20   XYZ
    dof rx
    limits (-10.0 170.0)
 end
 begin
     id 9 
     name rfoot
     direction -0.0784433 -0.215521 0.973343   
     length 1.67708  
     axis -90 -7.62852e-016 -20   XYZ
    dof rx rz
    limits (-45.0 90.0)
           (-20.0 70.0)
  end
  begin
     id 10 
     name rtoes
     direction -1.53551e-011 -4.21842e-011 1   
     length 0.849787   
     axis -90 -7.62852e-016 -20   XYZ
    dof rx
    limits (-90.0 20.0)
  end
  begin
     id 11 
     name lowerback
     direction -0.0122332 0.997575 -0.0685192   
     length 1.98724   
     axis 0 0 0   XYZ
    dof rx ry rz
    limits (-20.0 45.0)
           (-30.0 30.0)
           (-30.0 30.0)
  end
  begin
     id 12 
     name upperback
     direction 0.0182347 0.999724 -0.0148421   
     length 1.99029   
     axis 0 0 0   XYZ
    dof rx ry rz
    limits (-20.0 45.0)
           (-30.0 30.0)
           (-30.0 30.0)
  end
  begin
     id 13 
     name thorax
     direction 0.0242908 0.99956 0.0170184   
     length 1.99573   
     axis 0 0 0   XYZ
    dof rx ry rz
    limits (-20.0 45.0)
           (-30.0 30.0)
           (-30.0 30.0)
  end
  begin
     id 14 
     name lowerneck
     direction 0.0654488 0.985533 0.156338   
     length 1.4285   
     axis 0 0 0   XYZ
    dof rx ry rz
    limits (-20.0 45.0)
           (-30.0 30.0)
           (-30.0 30.0)
  end
  begin
     id 15 
     name upperneck
     direction -0.02953 0.998556 -0.0448842   
     length 1.44709   
     axis 0 0 0   XYZ
    dof rx ry rz
    limits (-20.0 45.0)
           (-30.0 30.0)
           (-30.0 30.0)
  end
  begin
     id 16
     name head
     direction -0.0155588 0.999386 -0.0314063  
     length 1.44689  
     axis 0 0 0   XYZ
    dof rx ry rz
    limits (-20.0 45.0)
           (-30.0 30.0)
           (-30.0 30.0)
  end
  begin
     id 17 
     name lclavicle
     direction 0.968229 0.236071 -0.0824755  
     length 3.60593  
     axis 0 0 0   XYZ
    dof ry rz
    limits (-20.0 10.0)
           (0.0 20.0)
  end
  begin
     id 18 
     name lhumerus
     direction 1 -4.48968e-011 7.8138e-029   
     length 5.06035   
     axis 180 -30 -90   XYZ
    dof rx ry rz
    limits (-60.0 90.0)
           (-90.0 90.0)
           (-90.0 90.0)
  end
  begin
     id 19
     name lradius
     direction 1 -4.48967e-011 9.02887e-028   
     length 3.1478   
     axis 180 -30 -90   XYZ
    dof rx
    limits (-10.0 170.0)
  end
  begin
     id 20
     name lwrist
     direction 1 -4.48961e-011 7.20928e-028   
     length 1.5739   
     axis -5.52449e-016 90 90   XYZ
    dof ry
    limits (-180.0 0.0)
 end
  begin
     id 21 
     name lhand
     direction 1 -4.48972e-011 1.44186e-027   
     length 0.606747   
     axis -9.20027e-016 90 90   XYZ
    dof rx rz
    limits (-90.0 90.0)
           (-45.0 45.0)
  end
  begin
     id 22 
     name lfingers
     direction 1 -4.48943e-011 2.88371e-027   
     length 0.489175   
     axis -1.84005e-015 90 90   XYZ
    dof rx
    limits (0.0 90.0)
  end
  begin
     id 23
     name lthumb
     direction 0.707107 -6.34917e-011 0.707107   
     length 0.70236   
     axis -90 45 2.85299e-015   XYZ
    dof rx rz
    limits (-45.0 45.0)
           (-45.0 45.0)
  end
  begin
     id 24 
     name rclavicle
     direction -0.978165 0.207816 0.0022268   
     length 3.35425  
     axis 0 0 0   XYZ 
    dof ry rz
    limits (-10.0 20.0)
           (-20.0 0.0)
  end
  begin
     id 25 
     name rhumerus
     direction -1 -4.48964e-011 -4.02159e-027  
     length 5.12273   
     axis 180 30 90   XYZ
    dof rx ry rz
    limits (-90.0 60.0)
           (-90.0 90.0)
           (-90.0 90.0)
  end
  begin
     id 26 
     name rradius
     direction -1 -4.48966e-011 1.62746e-027   
     length 3.422   
     axis 180 30 90   XYZ
    dof rx
    limits (-10.0 170.0)
  end
  begin
     id 27 
     name rwrist
     direction -1 -4.4896e-011 7.20928e-028   
     length 1.711   
     axis -5.52449e-016 -90 -90   XYZ
    dof ry
    limits (-180.0 0.0)
  end
  begin
     id 28
     name rhand
     direction -1 -4.48979e-011 1.44186e-027   
     length 0.704599   
     axis -9.20027e-016 -90 -90   XYZ
    dof rx rz
    limits (-90.0 90.0)
           (-45.0 45.0)
  end
  begin
     id 29
     name rfingers
     direction -1 -4.48962e-011 2.88371e-027   
     length 0.568066   
     axis -1.84005e-015 -90 -90   XYZ
    dof rx
    limits (0.0 90.0)
  end
  begin
     id 30
     name rthumb
     direction -0.707107 -6.34949e-011 0.707107   
     length 0.815633   
     axis -90 -45 -2.85299e-015   XYZ
    dof rx rz
    limits (-45.0 45.0)
           (-45.0 45.0)
  end
:hierarchy
  begin
    root lhipjoint rhipjoint lowerback
    lhipjoint lfemur
    lfemur ltibia
    ltibia lfoot
    lfoot ltoes
    rhipjoint rfemur
    rfemur rtibia
    rtibia rfoot
    rfoot rtoes
    lowerback upperback
    upperback thorax
    thorax lowerneck lclavicle rclavicle
    lowerneck upperneck
    upperneck head
    lclavicle lhumerus
    lhumerus lradius
    lradius lwrist
    lwrist lhand lthumb
    lhand lfingers
    rclavicle rhumerus
    rhumerus rradius
    rradius rwrist
    rwrist rhand rthumb
    rhand rfingers
  end

#!OML:ASF E:\id_vita\Project 1\Capture day 1\Session 1\Male1.ASF
:FULLY-SPECIFIED
:DEGREES
60
root -7.75247 26.9193 -0.74757 -10.3267 89.1854 -16.3462
lowerback -1.6611 -0.514104 -3.61267
upperback -0.135768 -0.623041 0.651846
thorax 0.837983 -0.325179 2.68032
lowerneck -5.92899 1.94546 3.7973
upperneck 12.5332 2.06832 2.25287
head 4.75695 1.38116 0.199509
rclavicle 2.52829e-015 -8.74653e-015
rhumerus -35.0848 -13.3552 -78.9008
rradius 23.0323
rwrist 3.57159
rhand -21.686 38.9708
rfingers 7.12502
rthumb 4.71199 9.04322
lclavicle 2.52829e-015 -8.74653e-015
lhumerus -30.8852 31.0262 73.4646
lradius 13.0476
lwrist -16.5822
lhand -13.0394 42.2055
lfingers 7.12502
lthumb 13.0552 71.7769
rfemur -7.45555 6.08204 11.937
rtibia 21.5377
rfoot -15.2309 -15.4315
rtoes -12.926
lfemur -10.9284 0.268263 -19.3999
ltibia 31.1752
lfoot -28.8545 2.2498
ltoes 30.0757
61
root -7.73546 26.9134 -0.772335 4.05129 89.4532 -1.95297
lowerback -1.71912 -0.5767 -3.87933
upperback -0.0848766 -0.698216 0.63978
thorax 0.931407 -0.366425 2.81509
lowerneck -6.2641 1.81368 3.69919
upperneck 13.0318 1.87059 2.31136
head 4.96429 1.29773 0.229302
rclavicle 1.65861e-015 -1.13307e-014
rhumerus -35.2116 -13.135 -78.9599
rradius 23.2437
rwrist 3.13738
rhand -21.1293 39.1947
rfingers 7.12502
rthumb 5.24954 9.27972
lclavicle 1.65861e-015 -1.13307e-014
lhumerus -30.6866 31.4516 73.4094
lradius 12.8546
lwrist -17.3654
lhand -13.3201 42.6204
lfingers 7.12502
lthumb 12.7846 72.2089
rfemur -7.37751 6.27979 11.6956
rtibia 21.7123
rfoot -15.0122 -16.0077
rtoes -13.4449
lfemur -10.891 0.725056 -19.602
ltibia 31.1788
lfoot -28.8195 1.41141
ltoes 30.3185
62
root -7.72659 26.9111 -0.808885 4.0734 89.2528 -1.89607
lowerback -1.61728 -0.453844 -3.6559
upperback -0.0638056 -0.541451 0.531962
thorax 0.880548 -0.286219 2.58329
lowerneck -6.31611 1.79305 3.73109
upperneck 12.7845 1.83493 2.32481
head 4.89679 1.27566 0.22463
rclavicle -1.01877e-015 -2.68359e-015
rhumerus -35.425 -13.237 -78.9975
rradius 23.3865
rwrist 2.89724
rhand -21.0952 38.9951
rfingers 7.12502
rthumb 5.28247 9.08096
lclavicle -1.01877e-015 -2.68359e-015
lhumerus -30.1712 30.4313 73.9301
lradius 12.8107
lwrist -16.7415
lhand -13.6027 42.9575
lfingers 7.12502
lthumb 12.5121 72.5629
rfemur -7.49456 6.32579 11.5629
rtibia 21.9451
rfoot -14.9869 -15.9744
rtoes -13.8018
lfemur -10.8155 0.920493 -19.723
ltibia 31.19
lfoot -28.9007 1.35974
ltoes 30.42
63
root -7.72338 26.9099 -0.847408 -0.043518 88.6652 -5.9419
lowerback -1.40346 -0.211377 -3.33642
upperback -0.0819315 -0.231454 0.452686
thorax 0.718028 -0.12675 2.33044
lowerneck -6.13701 1.80583 3.65851
upperneck 12.5123 1.87736 2.28294
head 4.78213 1.28238 0.221988
rclavicle -1.80149e-015 -5.96354e-016
rhumerus -35.6859 -13.1745 -79.0643
rradius 23.5249
rwrist 2.65757
rhand -21.4256 38.544
rfingers 7.12502
rthumb 4.96339 8.62212
lclavicle -1.80149e-015 -5.96354e-016
lhumerus -30.0004 30.3171 73.952
lradius 12.7121
lwrist -17.1163
lhand -13.673 42.9618
lfingers 7.12502
lthumb 12.4444 72.5714
rfemur -7.70387 6.35541 11.4689
rtibia 22.1987
rfoot -15.0734 -15.4389
rtoes -13.342
lfemur -10.6696 1.19626 -19.809
ltibia 31.1958
lfoot -29.0016 1.60485
ltoes 30.1356
64
root -7.71931 26.9046 -0.883326 6.59971 88.2142 0.60224
lowerback -1.42062 -0.0741663 -3.46259
upperback -0.121795 -0.0460263 0.420724
thorax 0.674752 -0.0329684 2.37223
lowerneck -5.98048 1.7406 3.58712
upperneck 12.3715 1.83041 2.07663
head 4.7126 1.23868 0.164371
rclavicle 1.16786e-015 4.57205e-015
rhumerus -35.8484 -12.7615 -79.1504
rradius 23.6164
rwrist 2.10917
rhand -21.4027 38.6255
rfingers 7.12502
rthumb 4.98554 8.70417
lclavicle 1.16786e-015 4.57205e-015
lhumerus -29.9278 30.4904 73.9891
lradius 12.691
lwrist -17.6023
lhand -13.7074 42.8815
lfingers 7.12502
lthumb 12.4112 72.493
rfemur -8.07721 6.43748 11.0802
rtibia 22.4798
rfoot -15.1678 -15.1306
rtoes -12.5466
lfemur -10.7385 1.49317 -20.1574
ltibia 31.2127
lfoot -29.0416 1.53759
ltoes 30.3492
65
root -7.71195 26.8985 -0.91717 8.66093 87.9647 2.54974
lowerback -1.51319 0.0191417 -3.47958
upperback -0.124076 0.0827323 0.368323
thorax 0.715772 0.0308048 2.33061
lowerneck -5.55403 1.69996 3.50193
upperneck 11.2206 1.81886 2.05298
head 4.74757 1.19943 0.184194
rclavicle 4.19933e-015 2.98177e-015
rhumerus -35.9545 -12.718 -79.1752
rradius 23.5932
rwrist 1.80234
rhand -21.072 39.145
rfingers 7.12502
rthumb 5.30482 9.23138
lclavicle 4.19933e-015 2.98177e-015
lhumerus -29.5593 29.824 74.3958
lradius 12.7433
lwrist -17.314
lhand -13.6878 42.8377
lfingers 7.12502
lthumb 12.4301 72.4481
rfemur -8.40344 6.58606 10.8385
rtibia 22.795
rfoot -15.2218 -15.1359
rtoes -12.2489
lfemur -10.8174 1.70751 -20.3698
ltibia 31.2
lfoot -29.064 1.29186
ltoes 31.0264
66
root -7.69893 26.8928 -0.946926 9.48663 87.9575 3.43233
lowerback -1.45569 0.063644 -3.39358
upperback -0.0993961 0.139735 0.267872
thorax 0.705528 0.0595972 2.18017
lowerneck -5.69654 1.65353 3.50314
upperneck 11.4066 1.72699 2.24801
head 4.84318 1.17083 0.248893
rclavicle 3.76448e-015 -1.28216e-014
rhumerus -36.1771 -12.928 -79.2005
rradius 23.7256
rwrist 2.06104
rhand -21.0893 39.1016
rfingers 7.12502
rthumb 5.28814 9.18759
lclavicle 3.76448e-015 -1.28216e-014
lhumerus -29.2959 29.535 74.4414
lradius 12.6785
lwrist -17.6153
lhand -13.5114 42.8533
lfingers 7.12502
lthumb 12.6002 72.4533
rfemur -8.44832 6.6529 10.7238
rtibia 23.1367
rfoot -15.2323 -15.2612
rtoes -12.2071
lfemur -10.7088 1.93982 -20.4808
ltibia 31.2042
lfoot -29.0607 0.930675
ltoes 31.3893
67
root -7.67515 26.889 -0.971835 16.4522 88.2845 10.4581
lowerback -1.55056 -0.110958 -3.58722
upperback -0.0413476 -0.0849012 0.265448
thorax 0.83275 -0.0563826 2.28171
lowerneck -5.61316 1.64978 3.15081
upperneck 11.4245 1.73585 2.48284
head 4.82532 1.17278 0.3916
rclavicle 3.52843e-015 -5.96354e-015
rhumerus -36.3629 -12.5855 -79.2986
rradius 23.9759
rwrist 2.11599
rhand -21.3657 38.2975
rfingers 7.12502
rthumb 5.02126 8.37702
lclavicle 3.52843e-015 -5.96354e-015
lhumerus -29.3079 30.0181 74.2297
lradius 12.6037
lwrist -18.3195
lhand -13.2391 42.8623
lfingers 7.12502
lthumb 12.8627 72.446
rfemur -8.32889 6.56207 10.5297
rtibia 23.4388
rfoot -15.2819 -15.6515
rtoes -12.0466
lfemur -10.6072 2.38707 -20.6666
ltibia 31.2197
lfoot -29.0534 -0.0455294
ltoes 31.696
68
root -7.6751 26.8804 -1.01298 9.32687 87.1831 3.47162
lowerback -1.34212 0.236643 -3.35467
upperback 0.0617775 0.367654 0.276152
thorax 0.793029 0.169809 2.17124
lowerneck -5.64669 1.67468 3.02898
upperneck 11.04 1.78961 2.38952
head 4.6895 1.17778 0.379709
rclavicle 5.95112e-015 -3.37934e-015
rhumerus -36.2928 -12.2135 -79.4192
rradius 24.0201
rwrist 1.94877
rhand -21.4954 38.0185
rfingers 7.12502
rthumb 4.89598 8.09506
lclavicle 5.95112e-015 -3.37934e-015
lhumerus -29.1008 30.8319 74.0705
lradius 12.4563
lwrist -19.2139
lhand -13.2368 42.7768
lfingers 7.12502
lthumb 12.865 72.3603
rfemur -8.74932 6.81402 10.3537
rtibia 23.7666
rfoot -15.3066 -14.9371
rtoes -12.6024
lfemur -10.3445 2.62733 -20.8633
ltibia 31.2282
lfoot -29.2925 0.696201
ltoes 31.7324
69
root -7.66666 26.876 -1.04435 8.23838 87.1068 2.46372
lowerback -1.22079 0.280574 -3.17245
upperback 0.126977 0.420625 0.203216
thorax 0.790344 0.196408 1.99455
lowerneck -5.57405 1.64545 2.97319
upperneck 10.9311 1.75909 2.39861
head 4.63356 1.15796 0.388606
rclavicle -6.02566e-015 4.47266e-015
rhumerus -36.2648 -12.3633 -79.5047
rradius 23.8142
rwrist 2.11131
rhand -21.2624 38.547
rfingers 7.12502
rthumb 5.12101 8.62892
lclavicle -6.02566e-015 4.47266e-015
lhumerus -28.691 30.72 74.1939
lradius 12.3216
lwrist -19.4002
lhand -13.6609 42.6607
lfingers 7.12502
lthumb 12.456 72.2695
rfemur -8.8532 6.92774 10.3032
rtibia 24.1762
rfoot -15.3837 -14.8767
rtoes -12.1652
lfemur -10.2175 2.62274 -20.9409
ltibia 31.2026
lfoot -29.2751 0.94448
ltoes 31.5726
70
root -7.65122 26.8721 -1.06884 13.4237 87.7624 7.80862
lowerback -1.05072 0.0570827 -3.25667
upperback 0.173123 0.119526 0.1119
thorax 0.759815 0.0458144 1.94225
lowerneck -5.6765 1.55529 2.95455
upperneck 11.1871 1.6246 2.47846
head 4.74757 1.10243 0.415798
rclavicle -4.41053e-015 -9.93923e-017
rhumerus -36.3354 -12.8825 -79.4066
rradius 23.5193
rwrist 2.74614
rhand -21.0493 39.0443
rfingers 7.12502
rthumb 5.32672 9.13125
lclavicle -4.41053e-015 -9.93923e-017
lhumerus -28.2828 29.4212 74.7495
lradius 12.3801
lwrist -18.3633
lhand -13.6283 42.7631
lfingers 7.12502
lthumb 12.4875 72.37
rfemur -8.58973 6.76726 10.185
rtibia 24.6397
rfoot -15.4978 -15.2495
rtoes -10.8651
lfemur -10.0642 2.57415 -21.0921
ltibia 31.1801
lfoot -29.1139 0.463498
ltoes 31.6539
71
root -7.6461 26.8696 -1.09524 14.3348 87.1977 8.6715
lowerback -0.997456 0.233938 -3.4694
upperback 0.149932 0.355999 0.0859551
thorax 0.691462 0.164739 2.03844
lowerneck -5.66406 1.51404 2.8857
upperneck 11.1224 1.58231 2.42109
head 4.72059 1.07354 0.404959
rclavicle 1.2424e-015 4.37326e-015
rhumerus -36.442 -13.0294 -79.32
rradius 23.4305
rwrist 3.06156
rhand -21.1329 39.0597
rfingers 7.12502
rthumb 5.24602 9.14466
lclavicle 1.2424e-015 4.37326e-015
lhumerus -27.8881 28.0955 75.4931
lradius 12.5567
lwrist -17.0632
lhand -13.5755 42.8746
lfingers 7.12502
lthumb 12.5384 72.4784
rfemur -9.00907 6.94462 9.88588
rtibia 25.1152
rfoot -15.4742 -15.0044
rtoes -10.5985
lfemur -10.0369 2.80566 -21.4116
ltibia 31.144
lfoot -29.1517 0.74168
ltoes 31.6987
72
root -7.63881 26.8711 -1.12488 14.6161 86.7241 8.71474
lowerback -1.16164 0.356227 -3.54615
upperback 0.104493 0.526445 0.0388023
thorax 0.726312 0.249843 2.03667
lowerneck -5.55044 1.53791 2.76497
upperneck 10.8898 1.6227 2.52086
head 4.60949 1.08744 0.458319
rclavicle -5.32991e-015 -3.27995e-015
rhumerus -36.523 -12.5801 -79.5626
rradius 23.4491
rwrist 2.4111
rhand -21.2412 38.7543
rfingers 7.12502
rthumb 5.14141 8.83667
lclavicle -5.32991e-015 -3.27995e-015
lhumerus -27.5789 27.2641 76.0041
lradius 12.7635
lwrist -16.223
lhand -13.7537 42.6724
lfingers 7.12502
lthumb 12.3666 72.2866
rfemur -9.64453 7.07989 9.61073
rtibia 25.6287
rfoot -15.4364 -14.8244
rtoes -10.8628
lfemur -10.2183 3.02408 -21.6933
ltibia 31.0966
lfoot -29.1803 0.951318
ltoes 31.7311
